

  <svg version="1.0" xmlns="http://www.w3.org/2000/svg"  width="300.000000pt" height="196.000000pt" viewBox="0 0 300.000000 196.000000"  preserveAspectRatio="xMidYMid meet">  <g transform="translate(0.000000,196.000000) scale(0.100000,-0.100000)" fill="#000000" stroke="none"> <path d="M2 978 l3 -983 2 977 3 978 1498 3 1497 2 -1502 3 -1503 2 2 -982z"/> <path d="M201 1856 c-52 -29 -50 -1 -51 -890 l0 -828 34 -34 34 -34 322 0 322 0 34 34 34 34 0 826 c0 618 -3 832 -12 851 -24 53 -40 55 -380 55 -241 -1 -319 -4 -337 -14z m77 -18 c9 -9 12 -9 12 0 0 9 34 11 138 8 75 -2 182 -5 237 -6 66 -1 93 -4 80 -10 -19 -8 -19 -9 2 -9 12 -1 29 6 37 15 14 13 22 14 53 3 21 -6 44 -18 52 -26 17 -17 29 -163 14 -163 -6 0 -7 -20 -1 -57 14 -89 6 -1433 -9 -1459 -22 -38 -67 -42 -375 -38 l-293 5 -25 24 -25 25 -2 645 c-1 354 1 704 5 778 4 74 4 133 0 130 -14 -8 -8 64 7 93 8 16 27 34 42 41 36 15 37 15 51 1z"/> <path d="M552 1823 c32 -2 84 -2 116 0 31 2 5 3 -58 3 -63 0 -89 -1 -58 -3z"/> <path d="M408 1763 c7 -3 16 -2 19 1 4 3 -2 6 -13 5 -11 0 -14 -3 -6 -6z"/> <path d="M668 1623 c7 -3 16 -2 19 1 4 3 -2 6 -13 5 -11 0 -14 -3 -6 -6z"/> <path d="M614 1275 c0 -126 2 -177 3 -112 2 65 2 168 0 230 -1 62 -3 9 -3 -118z"/> <path d="M325 1400 c-3 -5 -1 -10 4 -10 6 0 11 5 11 10 0 6 -2 10 -4 10 -3 0 -8 -4 -11 -10z"/> <path d="M344 1230 c0 -85 2 -120 3 -77 2 42 2 112 0 155 -1 42 -3 7 -3 -78z"/> <path d="M744 1230 c0 -85 2 -120 3 -77 2 42 2 112 0 155 -1 42 -3 7 -3 -78z"/> <path d="M321 1124 c0 -11 3 -14 6 -6 3 7 2 16 -1 19 -3 4 -6 -2 -5 -13z"/> <path d="M526 1092 c-2 -4 -1 -14 5 -22 7 -12 9 -10 9 8 0 23 -5 28 -14 14z"/> <path d="M435 1071 c-3 -5 -2 -12 3 -15 5 -3 9 1 9 9 0 17 -3 19 -12 6z"/> <path d="M526 1034 c-4 -9 -4 -19 -1 -22 2 -3 7 3 11 12 4 9 4 19 1 22 -2 3 -7 -3 -11 -12z"/> <path d="M625 1030 c3 -5 8 -10 11 -10 2 0 4 5 4 10 0 6 -5 10 -11 10 -5 0 -7 -4 -4 -10z"/> <path d="M338 638 c-34 -12 -35 -21 -6 -48 20 -18 22 -32 25 -125 2 -103 1 -106 -25 -131 l-27 -25 30 7 c17 4 31 8 33 9 1 1 4 61 5 134 3 107 1 134 -11 144 -8 6 -17 11 -19 10 -1 -2 -9 -3 -15 -3 -10 0 -10 2 0 8 7 5 25 7 40 4 23 -3 36 -20 92 -128 36 -68 67 -124 70 -124 4 0 12 17 19 38 7 20 31 76 54 125 l40 87 43 0 c56 0 65 16 13 25 -55 9 -76 -12 -125 -125 -30 -70 -41 -87 -51 -78 -7 6 -13 15 -13 20 0 5 -5 14 -10 21 -6 7 -25 41 -43 76 -36 73 -71 96 -119 79z"/> <path d="M690 589 c-6 -11 -9 -70 -8 -141 3 -120 4 -123 26 -126 21 -3 22 -1 13 17 -16 29 -14 210 2 241 12 23 12 26 -5 27 -10 1 -23 -7 -28 -18z"/> <path d="M639 565 c-3 -5 -9 -23 -13 -40 -4 -16 -25 -66 -47 -112 -21 -45 -39 -86 -39 -91 0 -6 -7 -12 -15 -16 -8 -3 -15 0 -15 7 0 18 -104 217 -114 217 -4 0 -5 -7 -2 -16 3 -9 6 -56 6 -105 l0 -89 26 0 c20 0 24 3 17 13 -6 6 -13 30 -17 52 -7 46 -1 40 46 -39 35 -58 53 -66 82 -35 24 26 26 30 26 55 0 9 5 12 12 8 7 -4 8 -3 4 4 -4 6 0 24 8 39 l15 28 -1 -49 c-1 -34 -7 -54 -21 -67 -11 -10 -17 -22 -14 -26 4 -3 7 -1 7 5 0 7 11 12 25 12 14 0 28 6 31 13 7 19 0 244 -7 232z"/> <path d="M346 291 c-29 -11 -7 -19 44 -16 69 4 78 7 45 15 -39 10 -66 10 -89 1z"/> <path d="M610 291 c-35 -10 -9 -18 55 -18 57 -1 77 7 49 18 -23 9 -71 9 -104 0z"/> <path d="M1192 1840 c-19 -19 -32 -44 -35 -67 -3 -21 -5 -396 -4 -833 2 -858 -1 -813 55 -855 26 -19 43 -20 342 -20 312 0 315 0 347 23 20 14 36 37 43 60 14 51 14 1593 0 1644 -6 20 -22 46 -37 58 -25 19 -38 20 -354 20 l-327 0 -30 -30z m700 -20 c24 -25 28 -37 29 -87 0 -32 2 -71 4 -88 2 -16 1 -25 -3 -18 -4 6 -6 -324 -5 -733 l1 -745 -23 -27 -23 -27 -294 -2 c-296 -2 -365 3 -360 26 1 7 -2 10 -8 6 -27 -17 -30 67 -30 817 1 424 -1 772 -4 775 -2 3 -1 15 4 28 5 13 6 25 4 28 -9 9 29 59 50 67 12 4 158 8 325 8 l304 0 29 -28z"/> <path d="M1498 1723 c6 -2 18 -2 25 0 6 3 1 5 -13 5 -14 0 -19 -2 -12 -5z"/> <path d="M1396 1617 c3 -10 9 -15 12 -12 3 3 0 11 -7 18 -10 9 -11 8 -5 -6z"/> <path d="M1525 1510 c-3 -6 1 -7 9 -4 18 7 21 14 7 14 -6 0 -13 -4 -16 -10z"/> <path d="M1522 1288 c-2 -181 0 -207 13 -202 18 7 18 9 4 36 -9 16 -8 23 2 29 10 6 10 9 2 9 -9 0 -13 44 -16 168 l-3 167 -2 -207z"/> <path d="M1624 1265 c0 -121 2 -169 3 -107 2 62 2 161 0 220 -1 59 -3 8 -3 -113z"/> <path d="M1335 1400 c-3 -5 -1 -10 4 -10 6 0 11 5 11 10 0 6 -2 10 -4 10 -3 0 -8 -4 -11 -10z"/> <path d="M1725 1388 c-3 -13 -4 -88 -3 -168 l4 -145 2 157 c1 111 5 157 14 160 9 3 9 6 0 12 -7 4 -14 -2 -17 -16z"/> <path d="M1322 1355 c0 -16 2 -22 5 -12 2 9 2 23 0 30 -3 6 -5 -1 -5 -18z"/> <path d="M1752 1235 c-1 -102 -6 -155 -14 -163 -9 -9 -9 -12 0 -12 19 0 23 37 20 185 l-4 140 -2 -150z"/> <path d="M1346 1124 c-4 -15 -3 -31 1 -35 5 -5 10 7 11 26 3 41 -3 46 -12 9z"/> <path d="M1440 1071 c0 -6 4 -13 10 -16 6 -3 7 1 4 9 -7 18 -14 21 -14 7z"/> <path d="M1520 1056 c0 -23 11 -46 22 -46 6 0 5 6 -2 15 -7 8 -10 22 -6 30 3 8 1 15 -4 15 -6 0 -10 -6 -10 -14z"/> <path d="M1426 1028 c3 -5 10 -6 15 -3 13 9 11 12 -6 12 -8 0 -12 -4 -9 -9z"/> <path d="M1292 642 c-33 -11 -4 -19 71 -21 89 -2 120 -15 139 -57 15 -32 -1 -68 -41 -92 l-29 -18 21 -20 c12 -11 34 -41 49 -67 26 -45 29 -47 73 -47 l45 0 0 139 c0 118 -2 140 -16 145 -25 10 -35 -3 -20 -27 10 -18 15 -154 7 -229 -1 -5 -9 -8 -18 -8 -10 0 -33 22 -53 51 -28 42 -32 53 -22 67 7 9 20 32 29 50 16 30 16 34 0 67 -22 47 -66 67 -152 69 -39 1 -77 0 -83 -2z"/> <path d="M1590 642 c-5 -2 -10 -8 -10 -13 0 -5 30 -9 67 -9 40 0 63 4 58 9 -10 9 -96 19 -115 13z"/> <path d="M1760 642 c-8 -3 -25 -13 -38 -23 -13 -10 -30 -15 -37 -13 -16 6 -21 -11 -28 -88 -6 -62 10 -63 60 -3 52 62 59 83 30 95 -16 6 0 9 58 10 64 0 76 3 61 12 -21 12 -82 18 -106 10z m-30 -61 c0 -24 -39 -73 -41 -51 -2 24 2 44 13 58 15 18 28 15 28 -7z"/> <path d="M1285 590 c19 -21 23 -233 5 -256 -10 -12 -8 -14 14 -14 l26 0 0 134 c0 138 -4 154 -43 153 -15 0 -16 -2 -2 -17z"/> <path d="M1364 597 c-3 -8 -4 -39 -2 -68 3 -50 5 -54 29 -57 62 -7 107 80 57 112 -37 22 -78 29 -84 13z m63 -29 c14 -23 13 -46 -2 -58 -20 -17 -26 -10 -30 34 -3 37 15 50 32 24z"/> <path d="M1803 581 c-12 -14 -41 -46 -63 -70 -22 -24 -39 -45 -38 -45 42 -25 63 -44 85 -79 34 -53 51 -67 80 -67 23 0 22 2 -14 39 -21 21 -52 55 -70 76 l-32 37 32 49 c18 27 47 56 65 64 39 19 40 23 5 23 -16 0 -36 -11 -50 -27z"/> <path d="M1367 453 c-9 -9 -9 -105 1 -119 4 -6 17 -13 29 -16 22 -6 22 -5 7 24 -27 52 0 56 34 6 17 -24 38 -50 47 -58 19 -15 201 -25 209 -11 8 13 -35 19 -119 19 -76 -1 -67 -6 -128 86 -33 51 -68 81 -80 69z"/> <path d="M1654 435 c3 -9 6 -39 6 -66 0 -47 1 -49 27 -49 21 0 24 3 15 12 -14 14 -16 72 -2 63 5 -3 17 -20 25 -38 24 -49 80 -87 126 -85 50 2 50 15 2 24 -53 9 -56 11 -110 84 -32 43 -57 66 -72 68 -19 3 -22 0 -17 -13z"/> <path d="M1307 293 c-9 -2 -15 -9 -12 -14 8 -12 115 -12 115 0 0 17 -60 25 -103 14z"/> <path d="M2208 1841 l-33 -29 0 -842 0 -842 35 -29 34 -29 321 0 c319 1 320 1 348 24 18 15 32 39 38 66 10 45 12 1527 2 1608 -4 30 -15 52 -35 72 l-30 30 -324 0 -324 0 -32 -29z m112 -3 c0 15 472 14 482 -1 6 -9 10 -9 17 2 12 19 54 7 87 -26 26 -26 26 -28 20 -122 -3 -53 -6 -103 -4 -111 6 -52 3 -1428 -4 -1442 -20 -41 -49 -45 -359 -44 -263 1 -298 3 -322 19 -15 9 -29 27 -32 40 -6 30 -12 1357 -5 1357 3 0 2 48 -1 107 -3 60 -4 121 -3 138 7 59 64 104 107 83 10 -5 17 -5 17 0z"/> <path d="M2410 1615 c6 -8 8 -20 4 -27 -5 -10 -4 -10 5 -2 13 12 5 44 -11 44 -6 0 -5 -6 2 -15z"/> <path d="M2542 1391 l2 -126 5 115 c3 63 9 120 13 126 4 6 1 11 -7 11 -13 0 -15 -22 -13 -126z"/> <path d="M2644 1270 c0 -124 2 -174 3 -112 2 61 2 163 0 225 -1 61 -3 11 -3 -113z"/> <path d="M2442 1268 c-2 -188 0 -218 13 -218 8 0 15 5 15 11 0 5 -4 7 -10 4 -14 -9 -12 19 2 33 9 9 9 12 0 12 -8 0 -12 52 -15 188 l-2 187 -3 -217z"/> <path d="M2356 1401 c-4 -6 -2 -11 4 -11 6 0 8 -4 5 -10 -3 -5 -1 -18 4 -27 9 -16 10 -15 11 7 0 32 -15 57 -24 41z"/> <path d="M2750 1400 c0 -5 5 -10 11 -10 5 0 7 5 4 10 -3 6 -8 10 -11 10 -2 0 -4 -4 -4 -10z"/> <path d="M2774 1225 c0 -82 2 -115 3 -72 2 43 2 110 0 150 -1 40 -3 5 -3 -78z"/> <path d="M2374 1205 c0 -71 1 -99 3 -62 2 37 2 96 0 130 -2 34 -3 4 -3 -68z"/> <path d="M2448 1033 c7 -3 16 -2 19 1 4 3 -2 6 -13 5 -11 0 -14 -3 -6 -6z"/> <path d="M2650 1029 c0 -5 5 -7 10 -4 6 3 10 8 10 11 0 2 -4 4 -10 4 -5 0 -10 -5 -10 -11z"/> <path d="M2545 1020 c3 -5 10 -10 16 -10 5 0 9 5 9 10 0 6 -7 10 -16 10 -8 0 -12 -4 -9 -10z"/> <path d="M2527 642 c-93 -9 -164 -149 -126 -249 12 -34 64 -89 100 -108 43 -23 155 -11 196 21 29 22 33 31 33 71 0 31 5 50 17 58 27 20 9 43 -39 50 -59 9 -130 -20 -98 -40 20 -12 30 -54 20 -79 -19 -50 -85 -41 -120 16 -35 58 -20 174 25 192 43 16 82 6 114 -30 32 -34 33 -35 52 -18 30 27 22 74 -16 95 -33 18 -99 27 -158 21z m132 -33 c17 -6 31 -16 31 -22 0 -7 3 -22 6 -34 5 -17 2 -23 -9 -23 -9 0 -17 10 -19 22 -2 15 -17 29 -43 42 -36 17 -44 17 -79 5 -48 -17 -76 -53 -83 -107 -8 -60 4 -107 36 -141 25 -27 36 -31 79 -31 71 0 92 21 84 80 -6 36 -12 45 -32 51 -33 9 -28 10 53 13 37 2 67 -1 67 -6 0 -4 -9 -8 -19 -8 -23 0 -31 -19 -31 -74 0 -35 -4 -44 -29 -59 -74 -43 -166 -28 -214 34 -58 77 -50 178 19 238 30 27 42 31 93 31 32 0 72 -5 90 -11z"/> </g> </svg> 